<?xml version="1.0" standalone="no"?>
<!DOCTYPE svg PUBLIC "-//W3C//DTD SVG 20010904//EN"
 "http://www.w3.org/TR/2001/REC-SVG-20010904/DTD/svg10.dtd">
<svg version="1.0" xmlns="http://www.w3.org/2000/svg"
 width="67.000000pt" height="67.000000pt" viewBox="0 0 67.000000 67.000000"
 preserveAspectRatio="xMidYMid meet">

<g transform="translate(0.000000,67.000000) scale(0.100000,-0.100000)"
fill="#000000" stroke="none">
<path d="M88 370 l4 -80 -34 0 c-53 0 -58 -11 -58 -141 0 -94 3 -121 16 -133
13 -14 56 -16 315 -16 188 0 308 4 320 10 25 14 25 56 0 70 -15 7 -21 23 -23
58 l-3 47 -260 132 c-143 73 -265 132 -270 133 -6 0 -9 -30 -7 -80z m272 -100
c201 -100 244 -129 226 -147 -3 -3 -88 33 -188 82 -108 52 -200 90 -225 93
-42 5 -43 5 -43 43 0 22 2 39 5 39 3 0 104 -50 225 -110z m51 -122 l204 -103
-275 -3 c-151 -1 -280 0 -287 3 -9 3 -13 33 -13 105 l0 100 83 0 84 0 204
-102z"/>
</g>
</svg>
