<?xml version="1.0" standalone="no"?>
<!DOCTYPE svg PUBLIC "-//W3C//DTD SVG 20010904//EN"
 "http://www.w3.org/TR/2001/REC-SVG-20010904/DTD/svg10.dtd">
<svg version="1.0" xmlns="http://www.w3.org/2000/svg"
 width="134.000000pt" height="134.000000pt" viewBox="0 0 134.000000 134.000000"
 preserveAspectRatio="xMidYMid meet">

<g transform="translate(0.000000,134.000000) scale(0.100000,-0.100000)"
fill="#000000" stroke="none">
<path d="M620 1323 c-8 -3 -24 -14 -36 -24 -11 -11 -146 -273 -299 -583 -257
-523 -277 -567 -271 -602 4 -20 20 -50 36 -66 l28 -28 590 0 589 0 27 27 c31
31 41 62 33 106 -3 18 -131 280 -285 582 -232 457 -285 554 -312 573 -32 21
-68 27 -100 15z m342 -641 c231 -455 278 -555 268 -567 -11 -13 -88 -15 -569
-13 l-556 3 2 30 c0 17 120 271 267 568 235 476 268 538 287 535 17 -2 76
-112 301 -556z"/>
</g>
</svg>
