<?xml version="1.0" standalone="no"?>
<!DOCTYPE svg PUBLIC "-//W3C//DTD SVG 20010904//EN"
 "http://www.w3.org/TR/2001/REC-SVG-20010904/DTD/svg10.dtd">
<svg version="1.0" xmlns="http://www.w3.org/2000/svg"
 width="134.000000pt" height="134.000000pt" viewBox="0 0 134.000000 134.000000"
 preserveAspectRatio="xMidYMid meet">

<g transform="translate(0.000000,134.000000) scale(0.100000,-0.100000)"
fill="#000000" stroke="none">
<path d="M584 1319 c-237 -27 -447 -195 -530 -423 -90 -250 -22 -527 174 -707
210 -192 534 -224 779 -77 123 73 236 216 283 358 30 90 37 241 16 340 -69
329 -379 548 -722 509z m267 -101 c99 -36 156 -74 231 -149 107 -109 163 -247
162 -404 -3 -246 -161 -459 -401 -541 -314 -108 -661 91 -739 424 -22 92 -14
224 19 314 66 181 225 325 413 373 86 22 230 14 315 -17z"/>
<path d="M630 830 c0 -167 1 -180 19 -190 12 -6 106 -10 235 -10 l216 0 0 40
0 40 -200 0 -200 0 0 150 0 150 -35 0 -35 0 0 -180z"/>
</g>
</svg>
