<?xml version="1.0" standalone="no"?>
<!DOCTYPE svg PUBLIC "-//W3C//DTD SVG 20010904//EN"
 "http://www.w3.org/TR/2001/REC-SVG-20010904/DTD/svg10.dtd">
<svg version="1.0" xmlns="http://www.w3.org/2000/svg"
 width="134.000000pt" height="134.000000pt" viewBox="0 0 134.000000 134.000000"
 preserveAspectRatio="xMidYMid meet">

<g transform="translate(0.000000,134.000000) scale(0.100000,-0.100000)"
fill="#000000" stroke="none">
<path d="M723 1305 c-17 -12 -22 -29 -28 -92 -31 -367 -133 -616 -339 -831
-84 -88 -175 -159 -269 -212 -67 -38 -81 -67 -50 -108 l20 -27 602 -9 c548 -7
604 -7 626 8 l25 16 0 620 0 619 -22 15 c-33 23 -533 24 -565 1z m497 -630 l0
-575 -263 0 c-145 0 -386 3 -535 7 l-271 6 46 30 c180 113 348 297 441 482 67
135 124 337 137 490 3 39 8 85 11 103 l5 32 214 0 215 0 0 -575z"/>
</g>
</svg>
