<?xml version="1.0" standalone="no"?>
<!DOCTYPE svg PUBLIC "-//W3C//DTD SVG 20010904//EN"
 "http://www.w3.org/TR/2001/REC-SVG-20010904/DTD/svg10.dtd">
<svg version="1.0" xmlns="http://www.w3.org/2000/svg"
 width="67.000000pt" height="67.000000pt" viewBox="0 0 67.000000 67.000000"
 preserveAspectRatio="xMidYMid meet">

<g transform="translate(0.000000,67.000000) scale(0.100000,-0.100000)"
fill="#000000" stroke="none">
<path d="M5 658 c-3 -7 -4 -157 -3 -333 l3 -320 330 0 c281 0 330 2 330 14 0
11 -23 18 -85 27 -164 24 -261 79 -331 187 -56 87 -80 170 -87 312 l-7 120
-73 3 c-52 2 -74 -1 -77 -10z m116 -143 c13 -209 83 -346 223 -437 l60 -38
-180 2 -179 3 -3 280 c-1 154 0 286 3 293 3 8 17 12 37 10 l33 -3 6 -110z"/>
</g>
</svg>
