<?xml version="1.0" standalone="no"?>
<!DOCTYPE svg PUBLIC "-//W3C//DTD SVG 20010904//EN"
 "http://www.w3.org/TR/2001/REC-SVG-20010904/DTD/svg10.dtd">
<svg version="1.0" xmlns="http://www.w3.org/2000/svg"
 width="134.000000pt" height="134.000000pt" viewBox="0 0 134.000000 134.000000"
 preserveAspectRatio="xMidYMid meet">

<g transform="translate(0.000000,134.000000) scale(0.100000,-0.100000)"
fill="#000000" stroke="none">
<path d="M485 1310 c-306 -34 -465 -152 -465 -345 0 -107 68 -284 170 -440
108 -165 335 -438 396 -476 41 -25 118 -25 160 0 68 42 308 331 411 496 116
185 158 308 151 441 -3 65 -10 90 -31 126 -76 130 -251 193 -557 202 -85 3
-191 1 -235 -4z m460 -95 c191 -40 285 -123 285 -254 0 -143 -130 -387 -344
-643 -136 -162 -199 -221 -229 -213 -67 19 -380 413 -472 595 -66 131 -92 273
-64 347 34 91 159 156 354 182 102 14 375 6 470 -14z"/>
</g>
</svg>
