<?xml version="1.0" standalone="no"?>
<!DOCTYPE svg PUBLIC "-//W3C//DTD SVG 20010904//EN"
 "http://www.w3.org/TR/2001/REC-SVG-20010904/DTD/svg10.dtd">
<svg version="1.0" xmlns="http://www.w3.org/2000/svg"
 width="134.000000pt" height="134.000000pt" viewBox="0 0 134.000000 134.000000"
 preserveAspectRatio="xMidYMid meet">

<g transform="translate(0.000000,134.000000) scale(0.100000,-0.100000)"
fill="#000000" stroke="none">
<path d="M891 1308 c-5 -13 -57 -202 -117 -421 l-109 -397 -6 282 c-6 302 -8
318 -61 395 -79 117 -265 165 -404 103 -61 -26 -120 -84 -151 -148 l-28 -57 0
-415 0 -415 27 -52 c34 -64 86 -115 147 -145 39 -19 62 -23 146 -23 94 0 104
2 158 32 l59 32 -6 -24 c-5 -21 -2 -25 31 -34 21 -6 40 -7 44 -3 3 4 23 70 43
147 21 77 44 164 52 192 l15 53 199 0 198 0 11 -32 c6 -18 31 -107 55 -197 25
-90 48 -166 50 -169 3 -2 21 1 41 8 33 11 36 15 30 39 -15 61 -327 1180 -341
1224 -14 42 -19 47 -45 47 -21 0 -32 -6 -38 -22z m-460 -112 c55 -23 90 -56
115 -110 24 -51 24 -52 24 -434 0 -417 -1 -425 -58 -485 -112 -118 -319 -90
-392 54 -19 36 -20 60 -20 431 0 360 2 396 19 433 20 44 68 90 116 111 40 18
154 17 196 0z m588 -384 c44 -162 81 -300 81 -308 0 -12 -29 -14 -170 -14
-126 0 -170 3 -170 12 0 28 165 617 171 610 4 -4 43 -139 88 -300z"/>
</g>
</svg>
